<?xml version="1.0" encoding="UTF-8" standalone="no"?>
<!-- Created with Inkscape (http://www.inkscape.org/) -->

<svg
   xmlns:dc="http://purl.org/dc/elements/1.1/"
   xmlns:cc="http://creativecommons.org/ns#"
   xmlns:rdf="http://www.w3.org/1999/02/22-rdf-syntax-ns#"
   xmlns:svg="http://www.w3.org/2000/svg"
   xmlns="http://www.w3.org/2000/svg"
   xmlns:xlink="http://www.w3.org/1999/xlink"
   xmlns:sodipodi="http://sodipodi.sourceforge.net/DTD/sodipodi-0.dtd"
   xmlns:inkscape="http://www.inkscape.org/namespaces/inkscape"
   width="210mm"
   height="297mm"
   viewBox="0 0 744.09448819 1052.3622047"
   id="svg2"
   version="1.1"
   inkscape:version="0.91 r"
   sodipodi:docname="icons.svg">
  <defs
     id="defs4">
    <linearGradient
       id="linearGradient4421"
       inkscape:collect="always">
      <stop
         id="stop4423"
         offset="0"
         style="stop-color:#ffffff;stop-opacity:1" />
      <stop
         id="stop4425"
         offset="1"
         style="stop-color:#797979;stop-opacity:0" />
    </linearGradient>
    <linearGradient
       id="linearGradient4299"
       inkscape:collect="always">
      <stop
         id="stop4301"
         offset="0"
         style="stop-color:#333333;stop-opacity:1" />
      <stop
         id="stop4303"
         offset="1"
         style="stop-color:#999999;stop-opacity:1" />
    </linearGradient>
    <linearGradient
       inkscape:collect="always"
       id="linearGradient4219">
      <stop
         style="stop-color:#4d4d4d;stop-opacity:1"
         offset="0"
         id="stop4221" />
      <stop
         style="stop-color:#797979;stop-opacity:0"
         offset="1"
         id="stop4223" />
    </linearGradient>
    <linearGradient
       inkscape:collect="always"
       id="linearGradient4191">
      <stop
         style="stop-color:#333333;stop-opacity:1"
         offset="0"
         id="stop4193" />
      <stop
         style="stop-color:#999999;stop-opacity:1"
         offset="1"
         id="stop4195" />
    </linearGradient>
    <linearGradient
       inkscape:collect="always"
       xlink:href="#linearGradient4299"
       id="linearGradient4197"
       x1="3377.9502"
       y1="1577.6415"
       x2="3377.9502"
       y2="678.60577"
       gradientUnits="userSpaceOnUse" />
    <linearGradient
       inkscape:collect="always"
       xlink:href="#linearGradient4191"
       id="linearGradient4205"
       x1="3277.1428"
       y1="543.79077"
       x2="3277.1428"
       y2="-353.35208"
       gradientUnits="userSpaceOnUse" />
    <linearGradient
       inkscape:collect="always"
       xlink:href="#linearGradient4421"
       id="linearGradient4225"
       x1="2747.615"
       y1="696.78851"
       x2="5608.5664"
       y2="696.78851"
       gradientUnits="userSpaceOnUse"
       gradientTransform="matrix(0.16121315,0,0,0.11267621,-344.1792,102.51889)" />
    <filter
       inkscape:collect="always"
       style="color-interpolation-filters:sRGB"
       id="filter4387"
       x="-0.059269842"
       width="1.1185397"
       y="-0.027106549"
       height="1.0542131">
      <feGaussianBlur
         inkscape:collect="always"
         stdDeviation="21.359406"
         id="feGaussianBlur4389" />
    </filter>
    <linearGradient
       inkscape:collect="always"
       xlink:href="#linearGradient4219"
       id="linearGradient4419"
       gradientUnits="userSpaceOnUse"
       gradientTransform="matrix(0.16121315,0,0,0.10410915,-344.1792,107.97375)"
       x1="2747.615"
       y1="696.78851"
       x2="5449.0615"
       y2="696.78851" />
    <linearGradient
       inkscape:collect="always"
       xlink:href="#linearGradient4191"
       id="linearGradient4427"
       gradientUnits="userSpaceOnUse"
       x1="3277.1428"
       y1="543.79077"
       x2="3277.1428"
       y2="-353.35208" />
    <linearGradient
       inkscape:collect="always"
       xlink:href="#linearGradient4299"
       id="linearGradient4429"
       gradientUnits="userSpaceOnUse"
       x1="3377.9502"
       y1="1577.6415"
       x2="3377.9502"
       y2="678.60577" />
    <linearGradient
       inkscape:collect="always"
       xlink:href="#linearGradient4191"
       id="linearGradient4431"
       gradientUnits="userSpaceOnUse"
       x1="3277.1428"
       y1="543.79077"
       x2="3277.1428"
       y2="-353.35208" />
    <linearGradient
       inkscape:collect="always"
       xlink:href="#linearGradient4299"
       id="linearGradient4433"
       gradientUnits="userSpaceOnUse"
       x1="3377.9502"
       y1="1577.6415"
       x2="3377.9502"
       y2="678.60577" />
  </defs>
  <sodipodi:namedview
     id="base"
     pagecolor="#ffffff"
     bordercolor="#666666"
     borderopacity="1.0"
     inkscape:pageopacity="0.0"
     inkscape:pageshadow="2"
     inkscape:zoom="0.7"
     inkscape:cx="496.81678"
     inkscape:cy="903.00962"
     inkscape:document-units="px"
     inkscape:current-layer="layer1"
     showgrid="false"
     inkscape:window-width="1920"
     inkscape:window-height="1055"
     inkscape:window-x="0"
     inkscape:window-y="0"
     inkscape:window-maximized="1" />
  <metadata
     id="metadata7">
    <rdf:RDF>
      <cc:Work
         rdf:about="">
        <dc:format>image/svg+xml</dc:format>
        <dc:type
           rdf:resource="http://purl.org/dc/dcmitype/StillImage" />
        <dc:title></dc:title>
      </cc:Work>
    </rdf:RDF>
  </metadata>
  <g
     inkscape:label="Layer 1"
     inkscape:groupmode="layer"
     id="layer1">
    <path
       style="opacity:1;fill:url(#linearGradient4225);fill-opacity:1;fill-rule:nonzero;stroke:none;stroke-width:10;stroke-linecap:round;stroke-linejoin:round;stroke-miterlimit:4;stroke-dasharray:none;stroke-opacity:1"
       d="m 94.864715,46.262735 0,9.73242 512.000005,0 0,-9.73242 -512.000005,0 z m 0,246.267575 0,9.73242 512.000005,0 0,-9.73242 -512.000005,0 z"
       id="rect4213"
       inkscape:export-filename="/home/vit/ProjectG70/blenderLTP/MiniGames/BGE_StelthyThief/textures/pk.png"
       inkscape:export-xdpi="90"
       inkscape:export-ydpi="90"
       inkscape:connector-curvature="0" />
    <rect
       ry="0"
       y="55.994789"
       x="94.863968"
       height="236.53564"
       width="512"
       id="rect4417"
       style="opacity:1;fill:url(#linearGradient4419);fill-opacity:1;fill-rule:nonzero;stroke:none;stroke-width:10;stroke-linecap:round;stroke-linejoin:round;stroke-miterlimit:4;stroke-dasharray:none;stroke-opacity:1"
       inkscape:export-filename="/home/vit/ProjectG70/blenderLTP/MiniGames/BGE_StelthyThief/textures/pk.png"
       inkscape:export-xdpi="90"
       inkscape:export-ydpi="90" />
    <g
       id="g4513"
       transform="matrix(0.84540281,0,0,0.84540281,-1108.339,722.49658)"
       inkscape:export-filename="/home/vit/ProjectG70/blenderLTP/MiniGames/BGE_StelthyThief/textures/pk.png"
       inkscape:export-xdpi="90"
       inkscape:export-ydpi="90">
      <g
         transform="matrix(0.13256214,0,0,0.13256214,1056.6728,-732.91465)"
         id="g4275"
         style="stroke:#ffffff">
        <path
           style="opacity:1;fill:url(#linearGradient4205);fill-opacity:1;fill-rule:nonzero;stroke:#ffffff;stroke-width:10.62088776;stroke-linecap:round;stroke-linejoin:round;stroke-miterlimit:4;stroke-dasharray:none;stroke-opacity:1"
           d="m 3661.7873,-308.68572 c -84.8675,-1.00884 -164.2217,77.75389 -152.0047,162.24418 6.0098,41.5623 -2.3151,104.527664 37.8922,127.167194 52.6539,-9.73032 16.1905,-73.67818 12.3377,-108.140564 -6.2668,-56.05366 20.618,-115.44931 76.7626,-129.39214 53.7678,-13.3526 112.1105,20.27483 124.3277,73.92757 13.9627,67.66237 0.014,139.499474 -26.6365,201.914674 -11.4068,26.71481 -44.16,87.491776 10.9248,77.33438 33.036,-6.09166 59.8143,-140.58534 67.4349,-207.007014 4.7029,-43.91285 -0.3857,-88.57131 -27.8015,-134.95726 -27.8811,-39.83911 -74.3792,-62.51023 -123.2372,-63.09102 z m -348.4999,171.10488 c -118.4276,117.441094 -237.0645,234.717214 -353.3726,354.25525 -27.2375,36.8466 4.1828,75.8394 33.0425,98.8914 78.0551,77.4783 153.7983,157.7743 234.257,232.5484 37.8709,25.3544 74.9975,-7.2315 98.5152,-35.752 116.2988,-116.8179 234.5233,-231.7938 348.9339,-350.4496 28.5871,-33.1101 7.8496,-185.113756 -11.2541,-276.63599 -3.7097,-13.6802 -9.8816,-30.71476 -27.9617,-38.75689 -42.8767,-8.68858 -52.3337,21.6339 -38.0336,54.634904 13.3453,22.34489 33.5732,42.31544 22.9861,71.85859 -9.5638,49.54723 -74.5861,73.2141 -113.7466,41.86951 -41.3266,-26.9893 -24.6044,-76.74271 -19.2826,-114.57228 l -10.4415,-69.776064 c -57.6544,-0.3785 -132.5509,-1.32951 -163.642,31.88477 z m 113.6237,196.072814 36.3093,33.99294 -29.6455,28.925596 c 16.0346,16.3852 28.5384,41.9144 32.8885,63.7004 -14.0501,6.9116 -44.6661,17.5841 -44.6661,17.5841 0,0 -20.7737,-63.0167 -50.1567,-69.5823 -35.5561,-7.9449 -47.0548,31.7485 -22.0742,65.0449 27.3862,36.5025 28.9176,82.492 -0.9102,115.9673 -31.9805,35.8913 -86.1171,34.4921 -121.982,7.6826 l -38.9028,34.5908 -33.8234,-40.0014 35.2464,-31.6603 c -20.0582,-21.3589 -33.5744,-65.2671 -33.4576,-65.2152 l 46.991,-22.0522 c 31.8984,109.6511 126.1218,79.1623 80.4913,17.117 -24.6819,-33.5609 -33.9828,-88.1978 0.1529,-122.455096 30.5053,-30.61393 81.694,-29.75971 114.8207,-6.2965 z"
           id="path4277"
           inkscape:connector-curvature="0"
           sodipodi:nodetypes="sscsscssccscccccccccccccccccccsssccccccsscc" />
        <path
           style="opacity:1;fill:url(#linearGradient4197);fill-opacity:1;fill-rule:nonzero;stroke:#ffffff;stroke-width:10;stroke-linecap:round;stroke-linejoin:round;stroke-miterlimit:4;stroke-dasharray:none;stroke-opacity:1"
           d="m 3381.9916,687.74469 a 130.30968,130.30968 0 0 0 -130.3106,130.31055 130.30968,130.30968 0 0 0 61.8535,110.77149 l -95.3964,0 c -37.4919,0 -92.5991,30.11179 -106.7618,90.55077 l -112.7695,481.2422 c -10.3436,44.1413 36.4988,81.8359 81.8359,81.8359 l 603.0957,0 c 45.3372,0 92.1342,-37.6839 81.836,-81.8359 l -114.9121,-492.6699 c -8.6734,-37.18631 -56.7146,-79.12307 -104.6192,-79.12307 l -95.5254,0 a 130.30968,130.30968 0 0 0 61.9825,-110.77149 130.30968,130.30968 0 0 0 -130.3086,-130.31055 z m 0,70.04493 a 60.26627,60.26627 0 0 1 60.2656,60.26562 60.26627,60.26627 0 0 1 -60.2656,60.26563 60.26627,60.26627 0 0 1 -60.2676,-60.26563 60.26627,60.26627 0 0 1 60.2676,-60.26562 z m 0,318.54878 a 175.76654,175.76654 0 0 1 175.7656,175.7657 175.76654,175.76654 0 0 1 -175.7656,175.7675 175.76654,175.76654 0 0 1 -175.7676,-175.7675 175.76654,175.76654 0 0 1 175.7676,-175.7657 z m -90.4824,89.7891 c -8.548,-0.094 -17.6684,3.7813 -17.3282,10.3789 l 0,124.6914 c -0.2686,13.7552 31.9318,15.5641 31.7285,0 l 0,-35.0957 40.5606,44.9434 c 11.4046,8.0473 29.6904,-7.232 21.6387,-21.7168 l -36.4297,-36.086 35.334,-25.5664 c 12.1673,-16.0387 -4.8354,-27.7867 -18.7129,-23.7402 l -41.9883,32.0879 -0.4024,-59.5176 c 0.2386,-7.1235 -6.858,-10.2961 -14.4003,-10.3789 z m 140.5312,36.8984 c -0.8039,-0.01 -1.6143,0.013 -2.4277,0.053 -34.1537,2.0222 -50.3045,27.8377 -50.4785,55.8203 -0.1814,29.1833 20.339,51.1378 46.5625,52.0195 11.1033,0.3733 19.3749,-0.8511 26.4726,-6.2422 7.3196,-5.4485 9.9502,-2.5513 6.4551,6.4121 -9.4881,24.3324 -37.1583,22.8477 -50.3535,8.9414 -17.6944,-9.3481 -32.5069,13.3539 -15.4043,28.2247 7.342,6.2222 22.3605,11.942 36.2168,11.9843 42.6255,0.1302 60.6571,-26.9439 60.7734,-63.5801 l 0,-77.1796 c 0.2489,-20.9018 -31.0257,-19.7086 -31.7285,-1.9414 -3.2593,-9.2808 -14.03,-14.43 -26.0879,-14.5118 z m 2.5703,29.1485 c 18.3763,0.3548 24.7303,11.94 24.1719,26.7754 -0.5971,15.8643 -11.9207,23.7046 -25.5742,23.375 -15.7494,-0.3802 -25.366,-12.1929 -24.8731,-25.3125 0.5775,-15.3714 10.5272,-25.142 26.2754,-24.8379 z"
           id="path4279"
           inkscape:connector-curvature="0" />
      </g>
      <g
         style="stroke:#000000;stroke-width:43.71183777;stroke-miterlimit:4;stroke-dasharray:none"
         id="g4269"
         transform="matrix(0.13256214,0,0,0.13256214,1056.6728,-732.91465)">
        <path
           sodipodi:nodetypes="sscsscssccscccccccccccccccccccsssccccccsscc"
           inkscape:connector-curvature="0"
           id="path4271"
           d="m 3661.7873,-308.68572 c -84.8675,-1.00884 -164.2217,77.75389 -152.0047,162.24418 6.0098,41.5623 -2.3151,104.527664 37.8922,127.167194 52.6539,-9.73032 16.1905,-73.67818 12.3377,-108.140564 -6.2668,-56.05366 20.618,-115.44931 76.7626,-129.39214 53.7678,-13.3526 112.1105,20.27483 124.3277,73.92757 13.9627,67.66237 0.014,139.499474 -26.6365,201.914674 -11.4068,26.71481 -44.16,87.491776 10.9248,77.33438 33.036,-6.09166 59.8143,-140.58534 67.4349,-207.007014 4.7029,-43.91285 -0.3857,-88.57131 -27.8015,-134.95726 -27.8811,-39.83911 -74.3792,-62.51023 -123.2372,-63.09102 z m -348.4999,171.10488 c -118.4276,117.441094 -237.0645,234.717214 -353.3726,354.25525 -27.2375,36.8466 4.1828,75.8394 33.0425,98.8914 78.0551,77.4783 153.7983,157.7743 234.257,232.5484 37.8709,25.3544 74.9975,-7.2315 98.5152,-35.752 116.2988,-116.8179 234.5233,-231.7938 348.9339,-350.4496 28.5871,-33.1101 7.8496,-185.113756 -11.2541,-276.63599 -3.7097,-13.6802 -9.8816,-30.71476 -27.9617,-38.75689 -42.8767,-8.68858 -52.3337,21.6339 -38.0336,54.634904 13.3453,22.34489 33.5732,42.31544 22.9861,71.85859 -9.5638,49.54723 -74.5861,73.2141 -113.7466,41.86951 -41.3266,-26.9893 -24.6044,-76.74271 -19.2826,-114.57228 l -10.4415,-69.776064 c -57.6544,-0.3785 -132.5509,-1.32951 -163.642,31.88477 z m 113.6237,196.072814 36.3093,33.99294 -29.6455,28.925596 c 16.0346,16.3852 28.5384,41.9144 32.8885,63.7004 -14.0501,6.9116 -44.6661,17.5841 -44.6661,17.5841 0,0 -20.7737,-63.0167 -50.1567,-69.5823 -35.5561,-7.9449 -47.0548,31.7485 -22.0742,65.0449 27.3862,36.5025 28.9176,82.492 -0.9102,115.9673 -31.9805,35.8913 -86.1171,34.4921 -121.982,7.6826 l -38.9028,34.5908 -33.8234,-40.0014 35.2464,-31.6603 c -20.0582,-21.3589 -30.9208,-52.79526 -33.4576,-65.2152 l 46.991,-22.0522 c 31.8984,109.6511 126.1218,79.1623 80.4913,17.117 -24.6819,-33.5609 -33.9828,-88.1978 0.1529,-122.455096 30.5053,-30.61393 81.694,-29.75971 114.8207,-6.2965 z"
           style="opacity:1;fill:url(#linearGradient4431);fill-opacity:1;fill-rule:nonzero;stroke:#000000;stroke-width:43.71183777;stroke-linecap:round;stroke-linejoin:round;stroke-miterlimit:4;stroke-dasharray:none;stroke-opacity:1" />
        <path
           inkscape:connector-curvature="0"
           id="path4273"
           d="m 3381.9916,687.74469 a 130.30968,130.30968 0 0 0 -130.3106,130.31055 130.30968,130.30968 0 0 0 61.8535,110.77149 l -95.3964,0 c -37.4919,0 -92.5991,30.11179 -106.7618,90.55077 l -112.7695,481.2422 c -10.3436,44.1413 36.4988,81.8359 81.8359,81.8359 l 603.0957,0 c 45.3372,0 92.1342,-37.6839 81.836,-81.8359 l -114.9121,-492.6699 c -8.6734,-37.18631 -56.7146,-79.12307 -104.6192,-79.12307 l -95.5254,0 a 130.30968,130.30968 0 0 0 61.9825,-110.77149 130.30968,130.30968 0 0 0 -130.3086,-130.31055 z m 0,70.04493 a 60.26627,60.26627 0 0 1 60.2656,60.26562 60.26627,60.26627 0 0 1 -60.2656,60.26563 60.26627,60.26627 0 0 1 -60.2676,-60.26563 60.26627,60.26627 0 0 1 60.2676,-60.26562 z m 0,318.54878 a 175.76654,175.76654 0 0 1 175.7656,175.7657 175.76654,175.76654 0 0 1 -175.7656,175.7675 175.76654,175.76654 0 0 1 -175.7676,-175.7675 175.76654,175.76654 0 0 1 175.7676,-175.7657 z m -90.4824,89.7891 c -8.548,-0.094 -17.6684,3.7813 -17.3282,10.3789 l 0,124.6914 c -0.2686,13.7552 31.9318,15.5641 31.7285,0 l 0,-35.0957 40.5606,44.9434 c 11.4046,8.0473 29.6904,-7.232 21.6387,-21.7168 l -36.4297,-36.086 35.334,-25.5664 c 12.1673,-16.0387 -4.8354,-27.7867 -18.7129,-23.7402 l -41.9883,32.0879 -0.4024,-59.5176 c 0.2386,-7.1235 -6.858,-10.2961 -14.4003,-10.3789 z m 140.5312,36.8984 c -0.8039,-0.01 -1.6143,0.013 -2.4277,0.053 -34.1537,2.0222 -50.3045,27.8377 -50.4785,55.8203 -0.1814,29.1833 20.339,51.1378 46.5625,52.0195 11.1033,0.3733 19.3749,-0.8511 26.4726,-6.2422 7.3196,-5.4485 9.9502,-2.5513 6.4551,6.4121 -9.4881,24.3324 -37.1583,22.8477 -50.3535,8.9414 -17.6944,-9.3481 -32.5069,13.3539 -15.4043,28.2247 7.342,6.2222 22.3605,11.942 36.2168,11.9843 42.6255,0.1302 60.6571,-26.9439 60.7734,-63.5801 l 0,-77.1796 c 0.2489,-20.9018 -31.0257,-19.7086 -31.7285,-1.9414 -3.2593,-9.2808 -14.03,-14.43 -26.0879,-14.5118 z m 2.5703,29.1485 c 18.3763,0.3548 24.7303,11.94 24.1719,26.7754 -0.5971,15.8643 -11.9207,23.7046 -25.5742,23.375 -15.7494,-0.3802 -25.366,-12.1929 -24.8731,-25.3125 0.5775,-15.3714 10.5272,-25.142 26.2754,-24.8379 z"
           style="opacity:1;fill:url(#linearGradient4433);fill-opacity:1;fill-rule:nonzero;stroke:#000000;stroke-width:43.71183777;stroke-linecap:round;stroke-linejoin:round;stroke-miterlimit:4;stroke-dasharray:none;stroke-opacity:1" />
      </g>
      <g
         style="stroke:#ffffff;stroke-width:11.08767605;stroke-miterlimit:4;stroke-dasharray:none"
         transform="matrix(0.13256214,0,0,0.13256214,1056.6728,-732.91465)"
         id="g4215">
        <path
           style="opacity:1;fill:url(#linearGradient4427);fill-opacity:1;fill-rule:nonzero;stroke:#ffffff;stroke-width:11.08767605;stroke-linecap:round;stroke-linejoin:round;stroke-miterlimit:4;stroke-dasharray:none;stroke-opacity:1"
           d="m 3661.7873,-308.68572 c -84.8675,-1.00884 -164.2217,77.75389 -152.0047,162.24418 6.0098,41.5623 -2.3151,104.527664 37.8922,127.167194 52.6539,-9.73032 16.1905,-73.67818 12.3377,-108.140564 -6.2668,-56.05366 20.618,-115.44931 76.7626,-129.39214 53.7678,-13.3526 112.1105,20.27483 124.3277,73.92757 13.9627,67.66237 0.014,139.499474 -26.6365,201.914674 -11.4068,26.71481 -44.16,87.491776 10.9248,77.33438 33.036,-6.09166 59.8143,-140.58534 67.4349,-207.007014 4.7029,-43.91285 -0.3857,-88.57131 -27.8015,-134.95726 -27.8811,-39.83911 -74.3792,-62.51023 -123.2372,-63.09102 z m -348.4999,171.10488 c -118.4276,117.441094 -237.0645,234.717214 -353.3726,354.25525 -27.2375,36.8466 4.1828,75.8394 33.0425,98.8914 78.0551,77.4783 153.7983,157.7743 234.257,232.5484 37.8709,25.3544 74.9975,-7.2315 98.5152,-35.752 116.2988,-116.8179 234.5233,-231.7938 348.9339,-350.4496 28.5871,-33.1101 7.8496,-185.113756 -11.2541,-276.63599 -3.7097,-13.6802 -9.8816,-30.71476 -27.9617,-38.75689 -42.8767,-8.68858 -52.3337,21.6339 -38.0336,54.634904 13.3453,22.34489 33.5732,42.31544 22.9861,71.85859 -9.5638,49.54723 -74.5861,73.2141 -113.7466,41.86951 -41.3266,-26.9893 -24.6044,-76.74271 -19.2826,-114.57228 l -10.4415,-69.776064 c -57.6544,-0.3785 -132.5509,-1.32951 -163.642,31.88477 z m 113.6237,196.072814 36.3093,33.99294 -29.6455,28.925596 c 16.0346,16.3852 28.5384,41.9144 32.8885,63.7004 -14.0501,6.9116 -44.6661,17.5841 -44.6661,17.5841 0,0 -20.7737,-63.0167 -50.1567,-69.5823 -35.5561,-7.9449 -47.0548,31.7485 -22.0742,65.0449 27.3862,36.5025 28.9176,82.492 -0.9102,115.9673 -31.9805,35.8913 -86.1171,34.4921 -121.982,7.6826 l -38.9028,34.5908 -33.8234,-40.0014 35.2464,-31.6603 c -20.0582,-21.3589 -31.8857,-56.0729 -33.4576,-65.2152 l 46.991,-22.0522 c 31.8984,109.6511 126.1218,79.1623 80.4913,17.117 -24.6819,-33.5609 -33.9828,-88.1978 0.1529,-122.455096 30.5053,-30.61393 81.694,-29.75971 114.8207,-6.2965 z"
           id="path4147"
           inkscape:connector-curvature="0"
           sodipodi:nodetypes="sscsscssccscccccccccccccccccccsssccccccsscc" />
        <path
           style="opacity:1;fill:url(#linearGradient4429);fill-opacity:1;fill-rule:nonzero;stroke:#ffffff;stroke-width:11.08767605;stroke-linecap:round;stroke-linejoin:round;stroke-miterlimit:4;stroke-dasharray:none;stroke-opacity:1"
           d="m 3381.9916,687.74469 a 130.30968,130.30968 0 0 0 -130.3106,130.31055 130.30968,130.30968 0 0 0 61.8535,110.77149 l -95.3964,0 c -37.4919,0 -92.5991,30.11179 -106.7618,90.55077 l -112.7695,481.2422 c -10.3436,44.1413 36.4988,81.8359 81.8359,81.8359 l 603.0957,0 c 45.3372,0 92.1342,-37.6839 81.836,-81.8359 l -114.9121,-492.6699 c -8.6734,-37.18631 -56.7146,-79.12307 -104.6192,-79.12307 l -95.5254,0 a 130.30968,130.30968 0 0 0 61.9825,-110.77149 130.30968,130.30968 0 0 0 -130.3086,-130.31055 z m 0,70.04493 a 60.26627,60.26627 0 0 1 60.2656,60.26562 60.26627,60.26627 0 0 1 -60.2656,60.26563 60.26627,60.26627 0 0 1 -60.2676,-60.26563 60.26627,60.26627 0 0 1 60.2676,-60.26562 z m 0,318.54878 a 175.76654,175.76654 0 0 1 175.7656,175.7657 175.76654,175.76654 0 0 1 -175.7656,175.7675 175.76654,175.76654 0 0 1 -175.7676,-175.7675 175.76654,175.76654 0 0 1 175.7676,-175.7657 z m -90.4824,89.7891 c -8.548,-0.094 -17.6684,3.7813 -17.3282,10.3789 l 0,124.6914 c -0.2686,13.7552 31.9318,15.5641 31.7285,0 l 0,-35.0957 40.5606,44.9434 c 11.4046,8.0473 29.6904,-7.232 21.6387,-21.7168 l -36.4297,-36.086 35.334,-25.5664 c 12.1673,-16.0387 -4.8354,-27.7867 -18.7129,-23.7402 l -41.9883,32.0879 -0.4024,-59.5176 c 0.2386,-7.1235 -6.858,-10.2961 -14.4003,-10.3789 z m 140.5312,36.8984 c -0.8039,-0.01 -1.6143,0.013 -2.4277,0.053 -34.1537,2.0222 -50.3045,27.8377 -50.4785,55.8203 -0.1814,29.1833 20.339,51.1378 46.5625,52.0195 11.1033,0.3733 19.3749,-0.8511 26.4726,-6.2422 7.3196,-5.4485 9.9502,-2.5513 6.4551,6.4121 -9.4881,24.3324 -37.1583,22.8477 -50.3535,8.9414 -17.6944,-9.3481 -32.5069,13.3539 -15.4043,28.2247 7.342,6.2222 22.3605,11.942 36.2168,11.9843 42.6255,0.1302 60.6571,-26.9439 60.7734,-63.5801 l 0,-77.1796 c 0.2489,-20.9018 -31.0257,-19.7086 -31.7285,-1.9414 -3.2593,-9.2808 -14.03,-14.43 -26.0879,-14.5118 z m 2.5703,29.1485 c 18.3763,0.3548 24.7303,11.94 24.1719,26.7754 -0.5971,15.8643 -11.9207,23.7046 -25.5742,23.375 -15.7494,-0.3802 -25.366,-12.1929 -24.8731,-25.3125 0.5775,-15.3714 10.5272,-25.142 26.2754,-24.8379 z"
           id="path4166"
           inkscape:connector-curvature="0" />
      </g>
      <g
         id="g4313"
         transform="matrix(0.13256214,0,0,0.13256214,1056.6728,-732.91465)"
         style="fill:none;stroke:#000000;stroke-width:7.72522688;stroke-miterlimit:4;stroke-dasharray:none;filter:url(#filter4387)">
        <path
           sodipodi:nodetypes="sscsscssccscccccccccccccccccccsssccccccsscc"
           inkscape:connector-curvature="0"
           id="path4315"
           d="m 3661.7873,-308.68572 c -84.8675,-1.00884 -164.2217,77.75389 -152.0047,162.24418 6.0098,41.5623 -2.3151,104.527664 37.8922,127.167194 52.6539,-9.73032 16.1905,-73.67818 12.3377,-108.140564 -6.2668,-56.05366 20.618,-115.44931 76.7626,-129.39214 53.7678,-13.3526 112.1105,20.27483 124.3277,73.92757 13.9627,67.66237 0.014,139.499474 -26.6365,201.914674 -11.4068,26.71481 -44.16,87.491776 10.9248,77.33438 33.036,-6.09166 59.8143,-140.58534 67.4349,-207.007014 4.7029,-43.91285 -0.3857,-88.57131 -27.8015,-134.95726 -27.8811,-39.83911 -74.3792,-62.51023 -123.2372,-63.09102 z m -348.4999,171.10488 c -118.4276,117.441094 -237.0645,234.717214 -353.3726,354.25525 -27.2375,36.8466 4.1828,75.8394 33.0425,98.8914 78.0551,77.4783 153.7983,157.7743 234.257,232.5484 37.8709,25.3544 74.9975,-7.2315 98.5152,-35.752 116.2988,-116.8179 234.5233,-231.7938 348.9339,-350.4496 28.5871,-33.1101 7.8496,-185.113756 -11.2541,-276.63599 -3.7097,-13.6802 -9.8816,-30.71476 -27.9617,-38.75689 -42.8767,-8.68858 -52.3337,21.6339 -38.0336,54.634904 13.3453,22.34489 33.5732,42.31544 22.9861,71.85859 -9.5638,49.54723 -74.5861,73.2141 -113.7466,41.86951 -41.3266,-26.9893 -24.6044,-76.74271 -19.2826,-114.57228 l -10.4415,-69.776064 c -57.6544,-0.3785 -132.5509,-1.32951 -163.642,31.88477 z m 113.6237,196.072814 36.3093,33.99294 -29.6455,28.925596 c 16.0346,16.3852 28.5384,41.9144 32.8885,63.7004 -14.0501,6.9116 -44.6661,17.5841 -44.6661,17.5841 0,0 -20.7737,-63.0167 -50.1567,-69.5823 -35.5561,-7.9449 -47.0548,31.7485 -22.0742,65.0449 27.3862,36.5025 28.9176,82.492 -0.9102,115.9673 -31.9805,35.8913 -86.1171,34.4921 -121.982,7.6826 l -38.9028,34.5908 -33.8234,-40.0014 35.2464,-31.6603 c -20.0582,-21.3589 -31.8857,-56.0729 -33.4576,-65.2152 l 46.991,-22.0522 c 31.8984,109.6511 126.1218,79.1623 80.4913,17.117 -24.6819,-33.5609 -33.9828,-88.1978 0.1529,-122.455096 30.5053,-30.61393 81.694,-29.75971 114.8207,-6.2965 z"
           style="opacity:1;fill:none;fill-opacity:1;fill-rule:nonzero;stroke:#000000;stroke-width:7.72522688;stroke-linecap:round;stroke-linejoin:round;stroke-miterlimit:4;stroke-dasharray:none;stroke-opacity:1" />
        <path
           inkscape:connector-curvature="0"
           id="path4317"
           d="m 3381.9916,687.74469 a 130.30968,130.30968 0 0 0 -130.3106,130.31055 130.30968,130.30968 0 0 0 61.8535,110.77149 l -95.3964,0 c -37.4919,0 -92.5991,30.11179 -106.7618,90.55077 l -112.7695,481.2422 c -10.3436,44.1413 36.4988,81.8359 81.8359,81.8359 l 603.0957,0 c 45.3372,0 92.1342,-37.6839 81.836,-81.8359 l -114.9121,-492.6699 c -8.6734,-37.18631 -56.7146,-79.12307 -104.6192,-79.12307 l -95.5254,0 a 130.30968,130.30968 0 0 0 61.9825,-110.77149 130.30968,130.30968 0 0 0 -130.3086,-130.31055 z m 0,70.04493 a 60.26627,60.26627 0 0 1 60.2656,60.26562 60.26627,60.26627 0 0 1 -60.2656,60.26563 60.26627,60.26627 0 0 1 -60.2676,-60.26563 60.26627,60.26627 0 0 1 60.2676,-60.26562 z m 0,318.54878 a 175.76654,175.76654 0 0 1 175.7656,175.7657 175.76654,175.76654 0 0 1 -175.7656,175.7675 175.76654,175.76654 0 0 1 -175.7676,-175.7675 175.76654,175.76654 0 0 1 175.7676,-175.7657 z m -90.4824,89.7891 c -8.548,-0.094 -17.6684,3.7813 -17.3282,10.3789 l 0,124.6914 c -0.2686,13.7552 31.9318,15.5641 31.7285,0 l 0,-35.0957 40.5606,44.9434 c 11.4046,8.0473 29.6904,-7.232 21.6387,-21.7168 l -36.4297,-36.086 35.334,-25.5664 c 12.1673,-16.0387 -4.8354,-27.7867 -18.7129,-23.7402 l -41.9883,32.0879 -0.4024,-59.5176 c 0.2386,-7.1235 -6.858,-10.2961 -14.4003,-10.3789 z m 140.5312,36.8984 c -0.8039,-0.01 -1.6143,0.013 -2.4277,0.053 -34.1537,2.0222 -50.3045,27.8377 -50.4785,55.8203 -0.1814,29.1833 20.339,51.1378 46.5625,52.0195 11.1033,0.3733 19.3749,-0.8511 26.4726,-6.2422 7.3196,-5.4485 9.9502,-2.5513 6.4551,6.4121 -9.4881,24.3324 -37.1583,22.8477 -50.3535,8.9414 -17.6944,-9.3481 -32.5069,13.3539 -15.4043,28.2247 7.342,6.2222 22.3605,11.942 36.2168,11.9843 42.6255,0.1302 60.6571,-26.9439 60.7734,-63.5801 l 0,-77.1796 c 0.2489,-20.9018 -31.0257,-19.7086 -31.7285,-1.9414 -3.2593,-9.2808 -14.03,-14.43 -26.0879,-14.5118 z m 2.5703,29.1485 c 18.3763,0.3548 24.7303,11.94 24.1719,26.7754 -0.5971,15.8643 -11.9207,23.7046 -25.5742,23.375 -15.7494,-0.3802 -25.366,-12.1929 -24.8731,-25.3125 0.5775,-15.3714 10.5272,-25.142 26.2754,-24.8379 z"
           style="opacity:1;fill:none;fill-opacity:1;fill-rule:nonzero;stroke:#000000;stroke-width:7.72522688;stroke-linecap:round;stroke-linejoin:round;stroke-miterlimit:4;stroke-dasharray:none;stroke-opacity:1" />
      </g>
      <g
         id="g4407"
         transform="matrix(0.13256214,0,0,0.13256214,1056.6728,-732.91465)"
         style="fill:none;stroke:#ffffff;stroke-width:11.08767605;stroke-miterlimit:4;stroke-dasharray:none">
        <path
           sodipodi:nodetypes="sscsscssccscccccccccccccccccccsssccccccsscc"
           inkscape:connector-curvature="0"
           id="path4409"
           d="m 3661.7873,-308.68572 c -84.8675,-1.00884 -164.2217,77.75389 -152.0047,162.24418 6.0098,41.5623 -2.3151,104.527664 37.8922,127.167194 52.6539,-9.73032 16.1905,-73.67818 12.3377,-108.140564 -6.2668,-56.05366 20.618,-115.44931 76.7626,-129.39214 53.7678,-13.3526 112.1105,20.27483 124.3277,73.92757 13.9627,67.66237 0.014,139.499474 -26.6365,201.914674 -11.4068,26.71481 -44.16,87.491776 10.9248,77.33438 33.036,-6.09166 59.8143,-140.58534 67.4349,-207.007014 4.7029,-43.91285 -0.3857,-88.57131 -27.8015,-134.95726 -27.8811,-39.83911 -74.3792,-62.51023 -123.2372,-63.09102 z m -348.4999,171.10488 c -118.4276,117.441094 -237.0645,234.717214 -353.3726,354.25525 -27.2375,36.8466 4.1828,75.8394 33.0425,98.8914 78.0551,77.4783 153.7983,157.7743 234.257,232.5484 37.8709,25.3544 74.9975,-7.2315 98.5152,-35.752 116.2988,-116.8179 234.5233,-231.7938 348.9339,-350.4496 28.5871,-33.1101 7.8496,-185.113756 -11.2541,-276.63599 -3.7097,-13.6802 -9.8816,-30.71476 -27.9617,-38.75689 -42.8767,-8.68858 -52.3337,21.6339 -38.0336,54.634904 13.3453,22.34489 33.5732,42.31544 22.9861,71.85859 -9.5638,49.54723 -74.5861,73.2141 -113.7466,41.86951 -41.3266,-26.9893 -24.6044,-76.74271 -19.2826,-114.57228 l -10.4415,-69.776064 c -57.6544,-0.3785 -132.5509,-1.32951 -163.642,31.88477 z m 113.6237,196.072814 36.3093,33.99294 -29.6455,28.925596 c 16.0346,16.3852 28.5384,41.9144 32.8885,63.7004 -14.0501,6.9116 -44.6661,17.5841 -44.6661,17.5841 0,0 -20.7737,-63.0167 -50.1567,-69.5823 -35.5561,-7.9449 -47.0548,31.7485 -22.0742,65.0449 27.3862,36.5025 28.9176,82.492 -0.9102,115.9673 -31.9805,35.8913 -86.1171,34.4921 -121.982,7.6826 l -38.9028,34.5908 -33.8234,-40.0014 35.2464,-31.6603 c -20.0582,-21.3589 -31.8857,-56.0729 -33.4576,-65.2152 l 46.991,-22.0522 c 31.8984,109.6511 126.1218,79.1623 80.4913,17.117 -24.6819,-33.5609 -33.9828,-88.1978 0.1529,-122.455096 30.5053,-30.61393 81.694,-29.75971 114.8207,-6.2965 z"
           style="opacity:1;fill:none;fill-opacity:1;fill-rule:nonzero;stroke:#ffffff;stroke-width:11.08767605;stroke-linecap:round;stroke-linejoin:round;stroke-miterlimit:4;stroke-dasharray:none;stroke-opacity:1" />
        <path
           inkscape:connector-curvature="0"
           id="path4411"
           d="m 3381.9916,687.74469 a 130.30968,130.30968 0 0 0 -130.3106,130.31055 130.30968,130.30968 0 0 0 61.8535,110.77149 l -95.3964,0 c -37.4919,0 -92.5991,30.11179 -106.7618,90.55077 l -112.7695,481.2422 c -10.3436,44.1413 36.4988,81.8359 81.8359,81.8359 l 603.0957,0 c 45.3372,0 92.1342,-37.6839 81.836,-81.8359 l -114.9121,-492.6699 c -8.6734,-37.18631 -56.7146,-79.12307 -104.6192,-79.12307 l -95.5254,0 a 130.30968,130.30968 0 0 0 61.9825,-110.77149 130.30968,130.30968 0 0 0 -130.3086,-130.31055 z m 0,70.04493 a 60.26627,60.26627 0 0 1 60.2656,60.26562 60.26627,60.26627 0 0 1 -60.2656,60.26563 60.26627,60.26627 0 0 1 -60.2676,-60.26563 60.26627,60.26627 0 0 1 60.2676,-60.26562 z m 0,318.54878 a 175.76654,175.76654 0 0 1 175.7656,175.7657 175.76654,175.76654 0 0 1 -175.7656,175.7675 175.76654,175.76654 0 0 1 -175.7676,-175.7675 175.76654,175.76654 0 0 1 175.7676,-175.7657 z m -90.4824,89.7891 c -8.548,-0.094 -17.6684,3.7813 -17.3282,10.3789 l 0,124.6914 c -0.2686,13.7552 31.9318,15.5641 31.7285,0 l 0,-35.0957 40.5606,44.9434 c 11.4046,8.0473 29.6904,-7.232 21.6387,-21.7168 l -36.4297,-36.086 35.334,-25.5664 c 12.1673,-16.0387 -4.8354,-27.7867 -18.7129,-23.7402 l -41.9883,32.0879 -0.4024,-59.5176 c 0.2386,-7.1235 -6.858,-10.2961 -14.4003,-10.3789 z m 140.5312,36.8984 c -0.8039,-0.01 -1.6143,0.013 -2.4277,0.053 -34.1537,2.0222 -50.3045,27.8377 -50.4785,55.8203 -0.1814,29.1833 20.339,51.1378 46.5625,52.0195 11.1033,0.3733 19.3749,-0.8511 26.4726,-6.2422 7.3196,-5.4485 9.9502,-2.5513 6.4551,6.4121 -9.4881,24.3324 -37.1583,22.8477 -50.3535,8.9414 -17.6944,-9.3481 -32.5069,13.3539 -15.4043,28.2247 7.342,6.2222 22.3605,11.942 36.2168,11.9843 42.6255,0.1302 60.6571,-26.9439 60.7734,-63.5801 l 0,-77.1796 c 0.2489,-20.9018 -31.0257,-19.7086 -31.7285,-1.9414 -3.2593,-9.2808 -14.03,-14.43 -26.0879,-14.5118 z m 2.5703,29.1485 c 18.3763,0.3548 24.7303,11.94 24.1719,26.7754 -0.5971,15.8643 -11.9207,23.7046 -25.5742,23.375 -15.7494,-0.3802 -25.366,-12.1929 -24.8731,-25.3125 0.5775,-15.3714 10.5272,-25.142 26.2754,-24.8379 z"
           style="opacity:1;fill:none;fill-opacity:1;fill-rule:nonzero;stroke:#ffffff;stroke-width:11.08767605;stroke-linecap:round;stroke-linejoin:round;stroke-miterlimit:4;stroke-dasharray:none;stroke-opacity:1" />
      </g>
    </g>
  </g>
</svg>
